<svg xmlns="http://www.w3.org/2000/svg" xmlns:xlink="http://www.w3.org/1999/xlink" width="1080" zoomAndPan="magnify" viewBox="0 0 810 809.999993" height="1080" preserveAspectRatio="xMidYMid meet" version="1.0"><defs><clipPath id="id1"><path d="M 64 24 L 746.28125 24 L 746.28125 797.835938 L 64 797.835938 Z M 64 24 " clip-rule="nonzero"/></clipPath></defs><g clip-path="url(#id1)"><path fill="rgb(14.898682%, 30.198669%, 89.408875%)" d="M 404.734375 797.808594 L 126.273438 720.53125 L 64.222656 24.695312 L 746.078125 24.683594 L 683.988281 720.410156 L 404.75 797.796875 Z M 404.734375 797.808594 " fill-opacity="1" fill-rule="nonzero"/></g><path fill="rgb(16.079712%, 39.608765%, 94.509888%)" d="M 630.8125 676.117188 L 683.894531 81.585938 L 405.164062 81.578125 L 405.164062 738.640625 L 630.8125 676.109375 Z M 630.8125 676.117188 " fill-opacity="1" fill-rule="nonzero"/><path fill="rgb(92.158508%, 92.158508%, 92.158508%)" d="M 206.484375 339.664062 L 214.132812 424.988281 L 405.164062 424.988281 L 405.164062 339.664062 Z M 206.484375 339.664062 " fill-opacity="1" fill-rule="nonzero"/><path fill="rgb(92.158508%, 92.158508%, 92.158508%)" d="M 191.109375 166.910156 L 198.867188 252.257812 L 405.164062 252.257812 L 405.164062 166.910156 Z M 191.109375 166.910156 " fill-opacity="1" fill-rule="nonzero"/><path fill="rgb(92.158508%, 92.158508%, 92.158508%)" d="M 405.164062 561.292969 L 404.789062 561.402344 L 309.71875 535.722656 L 303.640625 467.660156 L 217.949219 467.660156 L 229.90625 601.671875 L 404.761719 650.199219 L 405.164062 650.089844 Z M 405.164062 561.292969 " fill-opacity="1" fill-rule="nonzero"/><path fill="rgb(100%, 100%, 100%)" d="M 603.304688 339.664062 L 618.703125 166.910156 L 404.871094 166.910156 L 404.871094 252.257812 L 525.152344 252.257812 L 517.398438 339.664062 L 404.871094 339.664062 L 404.871094 424.988281 L 509.996094 424.988281 L 500.078125 535.667969 L 404.871094 561.375 L 404.871094 650.144531 L 579.863281 601.671875 L 581.148438 587.242188 L 601.222656 362.566406 Z M 603.304688 339.664062 " fill-opacity="1" fill-rule="nonzero"/></svg>