<svg xmlns="http://www.w3.org/2000/svg" xmlns:xlink="http://www.w3.org/1999/xlink" width="1080" zoomAndPan="magnify" viewBox="0 0 810 809.999993" height="1080" preserveAspectRatio="xMidYMid meet" version="1.0"><defs><clipPath id="id1"><path d="M 64 27 L 746.28125 27 L 746.28125 800.835938 L 64 800.835938 Z M 64 27 " clip-rule="nonzero"/></clipPath></defs><g clip-path="url(#id1)"><path fill="rgb(89.408875%, 30.198669%, 14.898682%)" d="M 746.09375 27.683594 L 683.976562 723.410156 L 404.734375 800.796875 L 126.273438 723.519531 L 64.222656 27.683594 L 746.078125 27.671875 L 746.105469 27.671875 Z M 746.09375 27.683594 " fill-opacity="1" fill-rule="nonzero"/></g><path fill="rgb(94.509888%, 39.608765%, 16.079712%)" d="M 405.164062 741.648438 L 630.8125 679.117188 L 683.894531 84.585938 L 405.164062 84.578125 Z M 405.164062 741.648438 " fill-opacity="1" fill-rule="nonzero"/><path fill="rgb(92.158508%, 92.158508%, 92.158508%)" d="M 284.402344 255.257812 L 405.164062 255.257812 L 405.164062 169.910156 L 191.109375 169.910156 L 193.152344 192.808594 L 214.132812 427.988281 L 405.164062 427.988281 L 405.164062 342.664062 L 292.203125 342.664062 Z M 284.402344 255.257812 " fill-opacity="1" fill-rule="nonzero"/><path fill="rgb(92.158508%, 92.158508%, 92.158508%)" d="M 303.640625 470.660156 L 217.949219 470.660156 L 229.90625 604.671875 L 404.761719 653.199219 L 405.164062 653.089844 L 405.164062 564.292969 L 404.789062 564.402344 L 309.71875 538.722656 Z M 303.640625 470.660156 " fill-opacity="1" fill-rule="nonzero"/><path fill="rgb(100%, 100%, 100%)" d="M 404.871094 427.988281 L 509.996094 427.988281 L 500.078125 538.667969 L 404.871094 564.375 L 404.871094 653.144531 L 579.863281 604.671875 L 581.148438 590.242188 L 601.222656 365.566406 L 603.304688 342.664062 L 404.871094 342.664062 Z M 404.871094 427.988281 " fill-opacity="1" fill-rule="nonzero"/><path fill="rgb(100%, 100%, 100%)" d="M 404.871094 255.042969 L 404.871094 255.257812 L 611.058594 255.257812 L 612.769531 236.070312 L 616.671875 192.808594 L 618.703125 169.910156 L 404.871094 169.910156 Z M 404.871094 255.042969 " fill-opacity="1" fill-rule="nonzero"/></svg>